<svg width="47" height="48" viewBox="0 0 47 48" fill="none" xmlns="http://www.w3.org/2000/svg">
<path d="M43.7229 23.9996L46.2989 19.5476C46.6085 19.012 46.6927 18.3753 46.533 17.7776C46.3733 17.1799 45.9828 16.6701 45.4472 16.3603L40.9906 13.7843V8.65094C40.9906 8.0321 40.7447 7.43861 40.3072 7.00102C39.8696 6.56344 39.2761 6.3176 38.6572 6.3176H33.5262L30.9526 1.86327C30.6417 1.32874 30.1329 0.938118 29.5362 0.775938C29.2403 0.695709 28.9314 0.675021 28.6274 0.715075C28.3233 0.755128 28.0303 0.855126 27.7652 1.00927L23.3086 3.58527L18.8519 1.00694C18.316 0.697533 17.6791 0.613686 17.0814 0.773841C16.4836 0.933996 15.974 1.32504 15.6646 1.86094L13.0886 6.3176H7.95758C7.33874 6.3176 6.74525 6.56344 6.30766 7.00102C5.87008 7.43861 5.62424 8.0321 5.62424 8.65094V13.7819L1.16758 16.3579C0.901653 16.5109 0.668573 16.7149 0.481729 16.9582C0.294885 17.2015 0.157959 17.4794 0.078819 17.7758C-0.000321038 18.0722 -0.0201157 18.3813 0.0205722 18.6853C0.0612601 18.9894 0.161628 19.2824 0.315911 19.5476L2.89191 23.9996L0.315911 28.4516C0.00788492 28.9877 -0.0756876 29.6239 0.0834141 30.2214C0.242516 30.8189 0.631388 31.3293 1.16524 31.6413L5.62191 34.2173V39.3483C5.62191 39.9671 5.86774 40.5606 6.30533 40.9982C6.74291 41.4358 7.33641 41.6816 7.95524 41.6816H13.0886L15.6646 46.1383C15.8712 46.4914 16.1661 46.7847 16.5204 46.9892C16.8747 47.1938 17.2761 47.3026 17.6852 47.3049C18.0912 47.3049 18.4949 47.1976 18.8542 46.9899L23.3062 44.4139L27.7629 46.9899C28.2987 47.2989 28.9351 47.3828 29.5327 47.2231C30.1302 47.0634 30.64 46.6733 30.9502 46.1383L33.5239 41.6816H38.6549C39.2738 41.6816 39.8672 41.4358 40.3048 40.9982C40.7424 40.5606 40.9882 39.9671 40.9882 39.3483V34.2173L45.4449 31.6413C45.7104 31.4879 45.943 31.2836 46.1295 31.0403C46.316 30.7969 46.4527 30.5192 46.5318 30.2229C46.6109 29.9267 46.6308 29.6178 46.5905 29.3139C46.5501 29.0099 46.4502 28.7169 46.2966 28.4516L43.7229 23.9996ZM17.4729 12.3096C18.4015 12.3099 19.2919 12.6791 19.9483 13.3359C20.6046 13.9927 20.9732 14.8834 20.9729 15.8119C20.9726 16.7405 20.6034 17.6309 19.9466 18.2873C19.2898 18.9437 18.3991 19.3122 17.4706 19.3119C16.542 19.3116 15.6516 18.9425 14.9952 18.2856C14.3388 17.6288 13.9703 16.7382 13.9706 15.8096C13.9709 14.881 14.3401 13.9906 14.9969 13.3342C15.6537 12.6779 16.5443 12.3093 17.4729 12.3096ZM18.1729 34.7096L14.4396 31.9119L28.4396 13.2453L32.1729 16.0429L18.1729 34.7096ZM29.1396 35.6429C28.6798 35.6428 28.2246 35.5521 27.7998 35.376C27.3751 35.1999 26.9892 34.9419 26.6642 34.6166C26.3392 34.2914 26.0814 33.9054 25.9056 33.4805C25.7298 33.0557 25.6394 32.6004 25.6396 32.1406C25.6397 31.6808 25.7304 31.2256 25.9065 30.8009C26.0826 30.3761 26.3406 29.9903 26.6659 29.6652C26.9911 29.3402 27.3771 29.0825 27.802 28.9067C28.2268 28.7309 28.6821 28.6405 29.1419 28.6406C30.0705 28.6409 30.9609 29.0101 31.6173 29.6669C32.2736 30.3237 32.6422 31.2144 32.6419 32.1429C32.6416 33.0715 32.2724 33.9619 31.6156 34.6183C30.9588 35.2747 30.0681 35.6432 29.1396 35.6429Z" fill="#444E66"/>
</svg>
