<svg width="49" height="36" viewBox="0 0 49 36" fill="none" xmlns="http://www.w3.org/2000/svg">
<path d="M40.25 18V16.25C40.25 12.0728 38.5906 8.06677 35.6369 5.11307C32.6832 2.15937 28.6772 0.5 24.5 0.5C20.3228 0.5 16.3168 2.15937 13.3631 5.11307C10.4094 8.06677 8.75 12.0728 8.75 16.25V18C6.42936 18 4.20376 18.9219 2.56282 20.5628C0.921872 22.2038 0 24.4294 0 26.75C0 29.0706 0.921872 31.2962 2.56282 32.9372C4.20376 34.5781 6.42936 35.5 8.75 35.5H12.25V16.25C12.25 13.0011 13.5406 9.88526 15.8379 7.58794C18.1353 5.29062 21.2511 4 24.5 4C27.7489 4 30.8647 5.29062 33.1621 7.58794C35.4594 9.88526 36.75 13.0011 36.75 16.25V35.5H40.25C42.5706 35.5 44.7962 34.5781 46.4372 32.9372C48.0781 31.2962 49 29.0706 49 26.75C49 24.4294 48.0781 22.2038 46.4372 20.5628C44.7962 18.9219 42.5706 18 40.25 18ZM3.5 26.75C3.5 25.3576 4.05312 24.0223 5.03769 23.0377C6.02226 22.0531 7.35761 21.5 8.75 21.5V32C7.35761 32 6.02226 31.4469 5.03769 30.4623C4.05312 29.4777 3.5 28.1424 3.5 26.75ZM40.25 32V21.5C41.6424 21.5 42.9777 22.0531 43.9623 23.0377C44.9469 24.0223 45.5 25.3576 45.5 26.75C45.5 28.1424 44.9469 29.4777 43.9623 30.4623C42.9777 31.4469 41.6424 32 40.25 32Z" fill="#444E66"/>
</svg>
