<svg width="46" height="50" viewBox="0 0 46 50" fill="none" xmlns="http://www.w3.org/2000/svg">
<path d="M20.7343 2.92625C21.4274 2.54134 22.2072 2.33936 23 2.33936C23.7928 2.33936 24.5726 2.54134 25.2657 2.92625L42.8007 12.6656C43.1642 12.8677 43.4671 13.1634 43.678 13.522C43.8888 13.8805 44 14.2889 44 14.7049V33.9199C43.9998 34.7521 43.7771 35.5691 43.3549 36.2862C42.9328 37.0034 42.3265 37.5946 41.599 37.9986L25.2657 47.0753C24.5726 47.4602 23.7928 47.6621 23 47.6621C22.2072 47.6621 21.4274 47.4602 20.7343 47.0753L4.401 37.9986C3.67383 37.5948 3.06781 37.0039 2.64567 36.2872C2.22353 35.5705 2.00061 34.754 2 33.9223V14.7049C1.99998 14.2889 2.11117 13.8805 2.32204 13.522C2.5329 13.1634 2.83579 12.8677 3.19933 12.6656L20.7367 2.92625H20.7343Z" stroke="#444E66" stroke-width="3" stroke-linecap="round" stroke-linejoin="round"/>
<path d="M23 25.0002V48.3335M2 13.3335L23 25.0002L2 13.3335ZM23 25.0002L44 13.3335L23 25.0002Z" stroke="#444E66" stroke-width="3" stroke-linejoin="round"/>
<path d="M12.5 19.1667L33.5 7.5" stroke="#444E66" stroke-width="3" stroke-linecap="round" stroke-linejoin="round"/>
<path d="M9 25.7644L16 29.6657" stroke="#444E66" stroke-width="3" stroke-linecap="round" stroke-linejoin="round"/>
</svg>
