<svg width="46" height="56" viewBox="0 0 46 56" fill="none" xmlns="http://www.w3.org/2000/svg">
<path d="M44.723 0.2975C44.9618 0.457231 45.1576 0.673293 45.2931 0.926611C45.4286 1.17993 45.4997 1.46271 45.5 1.75V28C45.4999 28.3495 45.3952 28.6909 45.1993 28.9804C45.0035 29.2698 44.7254 29.494 44.401 29.624L43.75 28L44.401 29.624L44.3905 29.6275L44.3695 29.638L44.289 29.6695C43.8289 29.8524 43.3656 30.0274 42.8995 30.1945C41.9755 30.527 40.691 30.975 39.235 31.4195C36.379 32.3015 32.6585 33.25 29.75 33.25C26.7855 33.25 24.332 32.27 22.197 31.4125L22.099 31.3775C19.88 30.485 17.99 29.75 15.75 29.75C13.3 29.75 10.017 30.555 7.2205 31.4195C5.96839 31.8097 4.72772 32.2357 3.5 32.697V54.25C3.5 54.7141 3.31563 55.1592 2.98744 55.4874C2.65925 55.8156 2.21413 56 1.75 56C1.28587 56 0.840752 55.8156 0.512563 55.4874C0.184375 55.1592 0 54.7141 0 54.25V1.75C0 1.28587 0.184375 0.840752 0.512563 0.512563C0.840752 0.184374 1.28587 0 1.75 0C2.21413 0 2.65925 0.184374 2.98744 0.512563C3.31563 0.840752 3.5 1.28587 3.5 1.75V2.737C4.291 2.4605 5.236 2.142 6.265 1.827C9.121 0.952 12.845 0 15.75 0C18.69 0 21.084 0.9695 23.1735 1.8165L23.324 1.8795C25.501 2.758 27.398 3.5 29.75 3.5C32.2 3.5 35.483 2.695 38.2795 1.8305C39.8731 1.33284 41.448 0.777139 43.001 0.1645L43.0675 0.14L43.0815 0.133H43.085L44.723 0.2975ZM42 4.2735C41.23 4.5465 40.32 4.858 39.319 5.166C36.484 6.048 32.767 6.9965 29.75 6.9965C26.649 6.9965 24.178 5.9955 22.0395 5.1275L22.0115 5.117C19.817 4.235 17.9865 3.5 15.75 3.5C13.4085 3.5 10.129 4.3015 7.2975 5.173C6.02038 5.56704 4.75409 5.99536 3.5 6.4575V28.973C4.27 28.7 5.18 28.3885 6.181 28.0805C9.016 27.195 12.733 26.25 15.75 26.25C18.7145 26.25 21.168 27.23 23.303 28.0875L23.401 28.1225C25.62 29.015 27.51 29.75 29.75 29.75C32.088 29.75 35.371 28.9485 38.2025 28.077C39.4796 27.6829 40.7459 27.2546 42 26.7925V4.277V4.2735Z" fill="#444E66"/>
</svg>
