<svg width="45" height="40" viewBox="0 0 45 40" fill="none" xmlns="http://www.w3.org/2000/svg">
<path d="M44.3581 19.0605L39.1081 6.8105C38.9734 6.49564 38.7491 6.22728 38.4632 6.03875C38.1773 5.85022 37.8423 5.74981 37.4999 5.75H32.2499V2.25C32.2499 1.78587 32.0655 1.34075 31.7373 1.01256C31.4091 0.684375 30.964 0.5 30.4999 0.5H2.49985V4H28.7499V25.973C27.9524 26.436 27.2546 27.0524 26.6965 27.7864C26.1384 28.5205 25.7312 29.3578 25.4984 30.25H14.5014C14.0754 28.6003 13.0625 27.1627 11.6523 26.2064C10.2422 25.2502 8.53178 24.8411 6.8416 25.0558C5.15143 25.2705 3.59757 26.0942 2.47129 27.3726C1.34501 28.651 0.723633 30.2962 0.723633 32C0.723633 33.7038 1.34501 35.349 2.47129 36.6274C3.59757 37.9058 5.15143 38.7295 6.8416 38.9442C8.53178 39.1589 10.2422 38.7498 11.6523 37.7936C13.0625 36.8373 14.0754 35.3997 14.5014 33.75H25.4984C25.879 35.2519 26.7497 36.584 27.9725 37.5356C29.1953 38.4871 30.7004 39.0037 32.2499 39.0037C33.7993 39.0037 35.3044 38.4871 36.5272 37.5356C37.75 36.584 38.6207 35.2519 39.0014 33.75H42.7499C43.214 33.75 43.6591 33.5656 43.9873 33.2374C44.3155 32.9093 44.4999 32.4641 44.4999 32V19.75C44.4999 19.5129 44.4517 19.2783 44.3581 19.0605ZM7.74985 35.5C7.05762 35.5 6.38093 35.2947 5.80536 34.9101C5.22979 34.5256 4.78118 33.9789 4.51627 33.3394C4.25137 32.6999 4.18206 31.9961 4.3171 31.3172C4.45215 30.6383 4.7855 30.0146 5.27498 29.5251C5.76446 29.0356 6.3881 28.7023 7.06704 28.5673C7.74597 28.4322 8.4497 28.5015 9.08924 28.7664C9.72879 29.0313 10.2754 29.4799 10.66 30.0555C11.0446 30.6311 11.2499 31.3078 11.2499 32C11.2489 32.928 10.8799 33.8177 10.2237 34.4739C9.56753 35.13 8.67783 35.4991 7.74985 35.5ZM32.2499 9.25H36.3449L40.0969 18H32.2499V9.25ZM32.2499 35.5C31.5576 35.5 30.8809 35.2947 30.3054 34.9101C29.7298 34.5256 29.2812 33.9789 29.0163 33.3394C28.7514 32.6999 28.6821 31.9961 28.8171 31.3172C28.9522 30.6383 29.2855 30.0146 29.775 29.5251C30.2645 29.0356 30.8881 28.7023 31.567 28.5673C32.246 28.4322 32.9497 28.5015 33.5892 28.7664C34.2288 29.0313 34.7754 29.4799 35.16 30.0555C35.5446 30.6311 35.7499 31.3078 35.7499 32C35.7489 32.928 35.3799 33.8177 34.7237 34.4739C34.0675 35.13 33.1778 35.4991 32.2499 35.5ZM40.9999 30.25H39.0014C38.6159 28.751 37.7439 27.4223 36.522 26.4722C35.3002 25.5221 33.7976 25.0043 32.2499 25V21.5H40.9999V30.25Z" fill="#444E66"/>
</svg>
